<svg preserveAspectRatio="none" width="402" height="824" viewBox="0 0 402 824" fill="none" xmlns="http://www.w3.org/2000/svg">
<g filter="url(#filter0_d)">
<mask id="path-1-inside-1" fill="white">
<path fill-rule="evenodd" clip-rule="evenodd" d="M44 0C21.9086 0 4 17.9086 4 40V776C4 798.091 21.9086 816 44 816H357.931C380.022 816 397.931 798.091 397.931 776V40C397.931 17.9086 380.022 0 357.931 0H44ZM50 17C33.4315 17 20 30.4314 20 47V770C20 786.569 33.4315 800 50 800H352C368.569 800 382 786.569 382 770V47C382 30.4315 368.569 17 352 17H50Z"/>
</mask>
<path fill-rule="evenodd" clip-rule="evenodd" d="M44 0C21.9086 0 4 17.9086 4 40V776C4 798.091 21.9086 816 44 816H357.931C380.022 816 397.931 798.091 397.931 776V40C397.931 17.9086 380.022 0 357.931 0H44ZM50 17C33.4315 17 20 30.4314 20 47V770C20 786.569 33.4315 800 50 800H352C368.569 800 382 786.569 382 770V47C382 30.4315 368.569 17 352 17H50Z" fill="black"/>
<path d="M5 40C5 18.4609 22.4609 1 44 1V-1C21.3563 -1 3 17.3563 3 40H5ZM5 776V40H3V776H5ZM44 815C22.4609 815 5 797.539 5 776H3C3 798.644 21.3564 817 44 817V815ZM357.931 815H44V817H357.931V815ZM396.931 776C396.931 797.539 379.47 815 357.931 815V817C380.575 817 398.931 798.644 398.931 776H396.931ZM396.931 40V776H398.931V40H396.931ZM357.931 1C379.47 1 396.931 18.4609 396.931 40H398.931C398.931 17.3563 380.575 -1 357.931 -1V1ZM44 1H357.931V-1H44V1ZM21 47C21 30.9837 33.9837 18 50 18V16C32.8792 16 19 29.8792 19 47H21ZM21 770V47H19V770H21ZM50 799C33.9837 799 21 786.016 21 770H19C19 787.121 32.8792 801 50 801V799ZM352 799H50V801H352V799ZM381 770C381 786.016 368.016 799 352 799V801C369.121 801 383 787.121 383 770H381ZM381 47V770H383V47H381ZM352 18C368.016 18 381 30.9837 381 47H383C383 29.8792 369.121 16 352 16V18ZM50 18H352V16H50V18Z" fill="black" mask="url(#path-1-inside-1)"/>
</g>
<path fill-rule="evenodd" clip-rule="evenodd" d="M399.941 248.719C399.941 249.526 399.041 250.181 397.931 250.181C397.376 250.181 396.926 249.731 396.926 249.176L396.926 143.705C396.926 143.15 397.376 142.7 397.931 142.7C399.041 142.7 399.941 143.355 399.941 144.162L399.941 248.719Z" fill="#121515"/>
<path fill-rule="evenodd" clip-rule="evenodd" d="M399.941 327.149C399.941 327.956 399.041 328.611 397.931 328.611C397.376 328.611 396.926 328.161 396.926 327.606L396.926 279.369C396.926 278.814 397.376 278.364 397.931 278.364C399.041 278.364 399.941 279.019 399.941 279.826L399.941 327.149Z" fill="#121515"/>
<rect x="30.1279" y="26.1281" width="86.4236" height="34.1675" rx="17.0837" fill="black"/>
<path fill-rule="evenodd" clip-rule="evenodd" d="M43.1922 50.0788C47.0772 50.0788 50.2267 46.9294 50.2267 43.0443C50.2267 39.1593 47.0772 36.0099 43.1922 36.0099C39.3072 36.0099 36.1577 39.1593 36.1577 43.0443C36.1577 46.9294 39.3072 50.0788 43.1922 50.0788Z" fill="#121515"/>
<path fill-rule="evenodd" clip-rule="evenodd" d="M43.192 47.4409C45.6201 47.4409 47.5885 45.4725 47.5885 43.0443C47.5885 40.6162 45.6201 38.6478 43.192 38.6478C40.7638 38.6478 38.7954 40.6162 38.7954 43.0443C38.7954 45.4725 40.7638 47.4409 43.192 47.4409Z" fill="#121515"/>
<path opacity="0.4" fill-rule="evenodd" clip-rule="evenodd" d="M43.1923 42.1651C43.6779 42.1651 44.0716 41.7714 44.0716 41.2857C44.0716 40.8001 43.6779 40.4064 43.1923 40.4064C42.7067 40.4064 42.313 40.8001 42.313 41.2857C42.313 41.7714 42.7067 42.1651 43.1923 42.1651Z" fill="#636F73"/>
<path fill-rule="evenodd" clip-rule="evenodd" d="M101.478 52.0887C106.473 52.0887 110.522 48.0394 110.522 43.0443C110.522 38.0493 106.473 34 101.478 34C96.4829 34 92.4336 38.0493 92.4336 43.0443C92.4336 48.0394 96.4829 52.0887 101.478 52.0887Z" fill="#121515"/>
<path fill-rule="evenodd" clip-rule="evenodd" d="M101.478 48.6971C104.6 48.6971 107.131 46.1662 107.131 43.0443C107.131 39.9224 104.6 37.3916 101.478 37.3916C98.356 37.3916 95.8252 39.9224 95.8252 43.0443C95.8252 46.1662 98.356 48.6971 101.478 48.6971Z" fill="#121515"/>
<path opacity="0.4" fill-rule="evenodd" clip-rule="evenodd" d="M101.478 41.9138C102.102 41.9138 102.608 41.4076 102.608 40.7833C102.608 40.1589 102.102 39.6527 101.478 39.6527C100.853 39.6527 100.347 40.1589 100.347 40.7833C100.347 41.4076 100.853 41.9138 101.478 41.9138Z" fill="#636F73"/>
<defs>
<filter id="filter0_d" x="0" y="0" width="401.931" height="824" filterUnits="userSpaceOnUse" color-interpolation-filters="sRGB">
<feFlood flood-opacity="0" result="BackgroundImageFix"/>
<feColorMatrix in="SourceAlpha" type="matrix" values="0 0 0 0 0 0 0 0 0 0 0 0 0 0 0 0 0 0 127 0" result="hardAlpha"/>
<feOffset dy="4"/>
<feGaussianBlur stdDeviation="2"/>
<feComposite in2="hardAlpha" operator="out"/>
<feColorMatrix type="matrix" values="0 0 0 0 0 0 0 0 0 0 0 0 0 0 0 0 0 0 0.25 0"/>
<feBlend mode="normal" in2="BackgroundImageFix" result="effect1_dropShadow"/>
<feBlend mode="normal" in="SourceGraphic" in2="effect1_dropShadow" result="shape"/>
</filter>
</defs>
</svg>
