<svg preserveAspectRatio="none" width="399" height="824" viewBox="0 0 399 824" fill="none" xmlns="http://www.w3.org/2000/svg">
<g filter="url(#filter0_d)">
<path fill-rule="evenodd" clip-rule="evenodd" d="M394.175 245.097C394.175 245.893 393.288 246.537 392.194 246.537C391.647 246.537 391.204 246.094 391.204 245.547L391.204 141.612C391.204 141.066 391.647 140.622 392.194 140.622C393.288 140.622 394.175 141.267 394.175 142.063L394.175 245.097Z" fill="#121515"/>
<path fill-rule="evenodd" clip-rule="evenodd" d="M394.175 322.385C394.175 323.18 393.288 323.825 392.194 323.825C391.647 323.825 391.204 323.382 391.204 322.835L391.204 275.301C391.204 274.754 391.647 274.311 392.194 274.311C393.288 274.311 394.175 274.955 394.175 275.751L394.175 322.385Z" fill="#121515"/>
<rect x="29.7476" y="25.7476" width="85.165" height="33.6699" rx="16.835" fill="black"/>
<path fill-rule="evenodd" clip-rule="evenodd" d="M42.6212 49.5146C46.4497 49.5146 49.5533 46.411 49.5533 42.5825C49.5533 38.7541 46.4497 35.6505 42.6212 35.6505C38.7928 35.6505 35.6892 38.7541 35.6892 42.5825C35.6892 46.411 38.7928 49.5146 42.6212 49.5146Z" fill="#121515"/>
<path fill-rule="evenodd" clip-rule="evenodd" d="M42.6213 46.915C45.0141 46.915 46.9539 44.9753 46.9539 42.5825C46.9539 40.1897 45.0141 38.25 42.6213 38.25C40.2286 38.25 38.2888 40.1897 38.2888 42.5825C38.2888 44.9753 40.2286 46.915 42.6213 46.915Z" fill="#121515"/>
<path opacity="0.4" fill-rule="evenodd" clip-rule="evenodd" d="M42.6211 41.716C43.0997 41.716 43.4876 41.3281 43.4876 40.8495C43.4876 40.3709 43.0997 39.983 42.6211 39.983C42.1426 39.983 41.7546 40.3709 41.7546 40.8495C41.7546 41.3281 42.1426 41.716 42.6211 41.716Z" fill="#636F73"/>
<path fill-rule="evenodd" clip-rule="evenodd" d="M100.058 51.4951C104.98 51.4951 108.971 47.5048 108.971 42.5825C108.971 37.6602 104.98 33.6699 100.058 33.6699C95.1358 33.6699 91.1455 37.6602 91.1455 42.5825C91.1455 47.5048 95.1358 51.4951 100.058 51.4951Z" fill="#121515"/>
<path fill-rule="evenodd" clip-rule="evenodd" d="M100.058 48.1529C103.135 48.1529 105.629 45.6589 105.629 42.5825C105.629 39.5061 103.135 37.0121 100.058 37.0121C96.9817 37.0121 94.4878 39.5061 94.4878 42.5825C94.4878 45.6589 96.9817 48.1529 100.058 48.1529Z" fill="#121515"/>
<path opacity="0.4" fill-rule="evenodd" clip-rule="evenodd" d="M100.058 41.4684C100.673 41.4684 101.172 40.9696 101.172 40.3543C101.172 39.7391 100.673 39.2403 100.058 39.2403C99.4429 39.2403 98.9441 39.7391 98.9441 40.3543C98.9441 40.9696 99.4429 41.4684 100.058 41.4684Z" fill="#636F73"/>
<mask id="path-10-inside-1" fill="white">
<path fill-rule="evenodd" clip-rule="evenodd" d="M44 0C21.9086 0 4 17.9086 4 40V776C4 798.091 21.9086 816 44 816H352C374.091 816 392 798.091 392 776V40C392 17.9086 374.091 0 352 0H44ZM50 16C33.4315 16 20 29.4314 20 46V770C20 786.569 33.4314 800 50 800H346C362.569 800 376 786.569 376 770V46C376 29.4315 362.569 16 346 16H50Z"/>
</mask>
<path fill-rule="evenodd" clip-rule="evenodd" d="M44 0C21.9086 0 4 17.9086 4 40V776C4 798.091 21.9086 816 44 816H352C374.091 816 392 798.091 392 776V40C392 17.9086 374.091 0 352 0H44ZM50 16C33.4315 16 20 29.4314 20 46V770C20 786.569 33.4314 800 50 800H346C362.569 800 376 786.569 376 770V46C376 29.4315 362.569 16 346 16H50Z" fill="black"/>
<path d="M5 40C5 18.4609 22.4609 1 44 1V-1C21.3563 -1 3 17.3563 3 40H5ZM5 776V40H3V776H5ZM44 815C22.4609 815 5 797.539 5 776H3C3 798.644 21.3563 817 44 817V815ZM352 815H44V817H352V815ZM391 776C391 797.539 373.539 815 352 815V817C374.644 817 393 798.644 393 776H391ZM391 40V776H393V40H391ZM352 1C373.539 1 391 18.4609 391 40H393C393 17.3563 374.644 -1 352 -1V1ZM44 1H352V-1H44V1ZM21 46C21 29.9837 33.9837 17 50 17V15C32.8792 15 19 28.8792 19 46H21ZM21 770V46H19V770H21ZM50 799C33.9837 799 21 786.016 21 770H19C19 787.121 32.8792 801 50 801V799ZM346 799H50V801H346V799ZM375 770C375 786.016 362.016 799 346 799V801C363.121 801 377 787.121 377 770H375ZM375 46V770H377V46H375ZM346 17C362.016 17 375 29.9837 375 46H377C377 28.8792 363.121 15 346 15V17ZM50 17H346V15H50V17Z" fill="black" mask="url(#path-10-inside-1)"/>
</g>
<defs>
<filter id="filter0_d" x="0" y="0" width="398.175" height="824" filterUnits="userSpaceOnUse" color-interpolation-filters="sRGB">
<feFlood flood-opacity="0" result="BackgroundImageFix"/>
<feColorMatrix in="SourceAlpha" type="matrix" values="0 0 0 0 0 0 0 0 0 0 0 0 0 0 0 0 0 0 127 0" result="hardAlpha"/>
<feOffset dy="4"/>
<feGaussianBlur stdDeviation="2"/>
<feComposite in2="hardAlpha" operator="out"/>
<feColorMatrix type="matrix" values="0 0 0 0 0 0 0 0 0 0 0 0 0 0 0 0 0 0 0.25 0"/>
<feBlend mode="normal" in2="BackgroundImageFix" result="effect1_dropShadow"/>
<feBlend mode="normal" in="SourceGraphic" in2="effect1_dropShadow" result="shape"/>
</filter>
</defs>
</svg>
